<svg id="Layer_1" enable-background="new 0 0 512 512" height="512" viewBox="0 0 512 512" width="512" xmlns="http://www.w3.org/2000/svg"><g><g id="XMLID_319_"><g id="XMLID_320_"><g id="XMLID_325_"><g id="XMLID_328_"><g id="XMLID_335_"><g id="XMLID_339_"><g id="XMLID_340_"><g id="XMLID_341_"><g id="XMLID_342_"><g id="XMLID_343_"><g id="XMLID_344_"><g id="XMLID_345_"><g id="XMLID_347_"><g id="XMLID_348_"><circle id="XMLID_349_" cx="256" cy="256" fill="#fff16b" r="256"/></g></g></g></g></g></g></g></g></g></g></g></g></g></g><path d="m512 256c0-23.257-3.12-45.782-8.931-67.199l-105.693-105.693c-29.734-2.463-49.214 2.257-65.501 9.267l-48.656-48.261-141.75 386.584 78.809 78.809c11.676 1.631 23.598 2.493 35.722 2.493 141.385 0 256-114.615 256-256z" fill="#ffd845"/><g><g><path d="m228.781 44.114h54.437v128.284h-54.437z" fill="#78777f"/></g><g><path d="m256 44.11h27.22v128.29h-27.22z" fill="#57555c"/></g><path d="m369.848 148.084c-31.397-9.084-56.074-1.799-74.308 10.054-24.37 15.841-54.71 15.841-79.08 0-18.235-11.853-42.911-19.138-74.308-10.054-92.976 26.899-79.696 166.858-14.231 266.5 44.59 67.87 128.079 14.695 128.079 14.695s83.489 53.175 128.079-14.694c65.465-99.643 78.745-239.602-14.231-266.501z" fill="#ff405c"/><path d="m384.08 414.58c-44.59 67.87-128.08 14.7-128.08 14.7v-259.26c9.23 0 18.45-1.8 27.22-5.41 4.23-1.73 8.35-3.89 12.32-6.47 18.23-11.85 42.91-19.14 74.31-10.06 92.97 26.9 79.69 166.86 14.23 266.5z" fill="#d01273"/><path d="m283.219 164.605s-6.208-91.468 114.158-81.497c-.001 0 6.005 132.369-114.158 81.497z" fill="#00da80"/></g></g></svg>